<?xml version="1.0" standalone="no"?>
<!DOCTYPE svg PUBLIC "-//W3C//DTD SVG 20010904//EN"
 "http://www.w3.org/TR/2001/REC-SVG-20010904/DTD/svg10.dtd">
<svg version="1.0" xmlns="http://www.w3.org/2000/svg"
 width="512.000000pt" height="512.000000pt" viewBox="0 0 512.000000 512.000000"
 preserveAspectRatio="xMidYMid meet">

<g transform="translate(0.000000,512.000000) scale(0.100000,-0.100000)"
fill="#000000" stroke="none">
<path d="M1648 4723 c27 -43 203 -325 392 -628 189 -302 348 -556 354 -563 9
-9 259 -12 1208 -10 l1196 3 -122 305 c-143 355 -152 374 -220 458 l-51 64 -7
-42 c-11 -65 -45 -126 -94 -168 -35 -31 -101 -62 -321 -151 l-278 -111 -527 0
-526 0 -274 458 -274 457 -252 3 -252 2 48 -77z"/>
<path d="M2249 4783 c6 -10 113 -189 239 -398 l228 -380 482 -3 481 -2 266
106 c221 88 269 111 294 140 54 61 53 154 -2 209 -36 35 -372 240 -470 285
-124 59 -139 60 -865 60 -628 0 -662 -1 -653 -17z"/>
<path d="M2830 3300 l50 -100 79 0 79 0 79 -237 80 -238 111 -3 c62 -1 112 1
112 5 0 4 -35 158 -77 341 l-78 332 -243 0 -242 0 50 -100z"/>
<path d="M3390 3396 c0 -2 131 -558 290 -1236 160 -678 290 -1234 290 -1236 0
-2 182 -4 405 -4 l405 0 -5 23 c-3 12 -100 560 -215 1217 -116 657 -212 1205
-215 1218 l-5 22 -475 0 c-261 0 -475 -2 -475 -4z"/>
<path d="M340 2660 c-18 -18 -20 -33 -20 -190 l0 -170 60 0 60 0 0 130 0 130
130 0 130 0 0 60 0 60 -170 0 c-157 0 -172 -2 -190 -20z"/>
<path d="M2300 2620 l0 -60 130 0 130 0 0 -130 0 -130 60 0 60 0 0 170 c0 157
-2 172 -20 190 -18 18 -33 20 -190 20 l-170 0 0 -60z"/>
<path d="M640 1930 l0 -370 -130 0 -130 0 0 -60 0 -60 130 0 130 0 0 -370 0
-370 60 0 60 0 0 370 0 370 100 0 100 0 0 -370 0 -370 60 0 60 0 0 370 0 370
100 0 100 0 0 -370 0 -370 60 0 60 0 0 370 0 370 100 0 100 0 0 -370 0 -370
60 0 60 0 0 370 0 370 100 0 100 0 0 -370 0 -370 60 0 60 0 0 370 0 370 100 0
100 0 0 -370 0 -370 60 0 60 0 0 370 0 370 130 0 130 0 0 60 0 60 -130 0 -130
0 0 370 0 370 -60 0 -60 0 0 -370 0 -370 -100 0 -100 0 0 370 0 370 -60 0 -60
0 0 -370 0 -370 -100 0 -100 0 0 370 0 370 -60 0 -60 0 0 -370 0 -370 -100 0
-100 0 0 370 0 370 -60 0 -60 0 0 -370 0 -370 -100 0 -100 0 0 370 0 370 -60
0 -60 0 0 -370 0 -370 -100 0 -100 0 0 370 0 370 -60 0 -60 0 0 -370z"/>
<path d="M3837 642 l-157 -157 0 -83 0 -83 408 3 407 3 52 27 c63 34 116 84
143 139 12 22 40 100 64 174 l44 135 -402 0 -401 0 -158 -158z"/>
<path d="M320 530 c0 -157 2 -172 20 -190 18 -18 33 -20 190 -20 l170 0 0 60
0 60 -130 0 -130 0 0 130 0 130 -60 0 -60 0 0 -170z"/>
<path d="M2560 570 l0 -130 -130 0 -130 0 0 -60 0 -60 170 0 c225 0 210 -15
210 210 l0 170 -60 0 -60 0 0 -130z"/>
</g>
</svg>
